<?xml version="1.0" encoding="UTF-8" standalone="no"?>
<!-- Created with Inkscape (http://www.inkscape.org/) -->

<svg
   version="1.1"
   id="svg39"
   width="138.54652"
   height="102.76987"
   viewBox="0 0 138.54652 102.76987"
   sodipodi:docname="logo.svg"
   inkscape:version="1.2 (dc2aedaf03, 2022-05-15)"
   xmlns:inkscape="http://www.inkscape.org/namespaces/inkscape"
   xmlns:sodipodi="http://sodipodi.sourceforge.net/DTD/sodipodi-0.dtd"
   xmlns="http://www.w3.org/2000/svg"
   xmlns:svg="http://www.w3.org/2000/svg">
  <defs
     id="defs43" />
  <sodipodi:namedview
     id="namedview41"
     pagecolor="#505050"
     bordercolor="#eeeeee"
     borderopacity="1"
     inkscape:showpageshadow="0"
     inkscape:pageopacity="0"
     inkscape:pagecheckerboard="0"
     inkscape:deskcolor="#505050"
     showgrid="false"
     inkscape:zoom="3.2938776"
     inkscape:cx="40.226146"
     inkscape:cy="65.120818"
     inkscape:window-width="2560"
     inkscape:window-height="1009"
     inkscape:window-x="0"
     inkscape:window-y="0"
     inkscape:window-maximized="1"
     inkscape:current-layer="g45" />
  <g
     inkscape:groupmode="layer"
     inkscape:label="Image"
     id="g45"
     transform="translate(-60.276103,-57.475396)">
    <g
       id="g934">
      <path
         style="fill:#ffffff;fill-opacity:0.612598;stroke-width:0.468888"
         d="m 76.717094,157.42012 c -0.81867,-0.35611 -1.79073,-1.1391 -2.16013,-1.73998 -3.190993,-5.1906 -13.593233,-23.59036 -14.005783,-24.7738 -0.42816,-1.22822 -0.37501,-1.81634 0.29031,-3.21218 0.74948,-1.57243 8.06319,-14.35546 11.03777,-19.29199 0.699273,-1.1605 5.665063,-9.705979 11.035093,-18.989929 5.37003,-9.283984 11.48104,-19.833971 13.580027,-23.444407 l 3.816339,-6.564431 5.546,-0.13271 c 4.46204,-0.106772 5.45251,-0.01513 5.06769,0.468888 -0.26307,0.330879 -2.47584,4.083091 -4.91728,8.338248 -3.95076,6.88574 -13.751163,23.788072 -30.288626,52.237411 l -5.425923,9.33418 0.95168,1.68469 c 4.855493,8.59524 7.009193,12.21611 7.271233,12.22461 0.17045,0.006 3.52853,-5.5287 7.46239,-12.29827 3.93386,-6.76957 7.836733,-13.4688 8.67305,-14.88719 0.836322,-1.41838 5.673946,-9.75287 10.750286,-18.521069 5.07634,-8.76818 10.03311,-17.313664 11.01505,-18.989944 0.98194,-1.67628 3.61181,-6.212761 5.84415,-10.081086 2.23235,-3.868325 4.57908,-7.560817 5.21496,-8.205538 l 1.15613,-1.17222 19.27053,-0.132447 c 22.71259,-0.156104 25.0496,0.08717 31.31867,3.260191 6.93766,3.51142 12.10962,9.810743 14.3708,17.50332 1.13029,3.84525 1.13681,11.242144 0.0132,15.004414 -2.31254,7.743449 -7.45983,14.004309 -14.38402,17.495849 -2.42075,1.22066 -5.13782,2.18717 -7.00312,2.4911 -1.67627,0.27314 -3.72159,0.6353 -4.54515,0.8048 l -1.49738,0.30819 3.49016,6.07183 c 2.22257,3.86662 3.49015,6.58428 3.49015,7.48282 0,1.33792 -3.10049,7.08603 -11.53087,21.3775 -3.48674,5.91083 -4.35068,6.77756 -6.75576,6.77756 -2.08329,0 -3.25918,-0.89539 -4.841,-3.68621 -2.50755,-4.42412 -7.22644,-12.59387 -10.18134,-17.62688 -8.93035,-15.21082 -13.55375,-23.41173 -13.83861,-24.54669 -0.3942,-1.57064 0.53102,-3.90475 1.84699,-4.6595 0.65587,-0.37616 4.50855,-0.64742 11.39956,-0.80263 l 10.40886,-0.23445 -4.48169,-7.736639 c -12.23819,-21.126474 -14.445,-24.851047 -14.72427,-24.851047 -0.16629,0 -2.16458,3.217753 -4.44064,7.150553 -7.32312,12.653624 -12.17712,21.018153 -17.34622,29.891573 -6.76172,11.60735 -7.34749,12.61739 -12.508919,21.56884 -13.218717,22.92514 -14.100017,24.33686 -15.652677,25.07365 -1.80266,0.85541 -1.89469,0.85617 -3.79169,0.031 z m 82.377446,-20.53301 c 2.14303,-3.67491 3.89758,-6.91861 3.899,-7.20822 0.001,-0.2896 -1.74007,-3.50734 -3.86999,-7.15054 l -3.87258,-6.62398 h -8.16221 c -4.48921,0 -8.1622,0.12508 -8.1622,0.27794 0,0.15286 3.02401,5.4806 6.72002,11.83942 3.69601,6.35882 7.21635,12.45823 7.82298,13.55426 0.60664,1.09602 1.24373,1.99277 1.41576,1.99277 0.17204,0 2.06618,-3.00674 4.20922,-6.68165 z m 11.96955,-31.07896 c 5.82878,-1.49851 10.81054,-5.873319 12.88078,-11.311439 3.76323,-9.885374 -0.9328,-20.691113 -10.708,-24.639483 -2.56271,-1.035123 -3.24353,-1.079765 -18.54451,-1.215983 -14.99931,-0.133532 -15.86649,-0.09546 -15.56759,0.683471 0.2739,0.713759 14.24798,24.927255 19.64339,34.036904 l 1.87453,3.165 h 3.81339 c 2.09737,0 5.07097,-0.32331 6.60801,-0.71847 z"
         id="path207-3-6" />
      <path
         style="fill:#ff00ff;fill-opacity:0.75812;stroke-width:0.468888"
         d="m 80.505753,155.66475 c -0.81867,-0.35611 -1.79073,-1.1391 -2.16013,-1.73998 -3.19099,-5.1906 -13.59323,-23.59036 -14.00578,-24.7738 -0.42816,-1.22822 -0.37501,-1.81634 0.29031,-3.21218 0.74948,-1.57243 8.06319,-14.35546 11.03777,-19.29199 0.69927,-1.1605 5.66506,-9.705976 11.03509,-18.989956 5.37003,-9.28398 11.48104,-19.833962 13.580037,-23.444398 l 3.81634,-6.564431 5.546,-0.13271 c 4.46204,-0.106772 5.45251,-0.01513 5.06769,0.468888 -0.26307,0.330879 -2.47584,4.083091 -4.91728,8.338248 -3.95076,6.88574 -13.751177,23.788073 -30.288637,52.237429 l -5.42592,9.33418 0.95168,1.68469 c 4.85549,8.59524 7.00919,12.21611 7.27123,12.22461 0.17045,0.006 3.52853,-5.5287 7.46239,-12.29827 3.93386,-6.76957 7.83673,-13.4688 8.67305,-14.88719 0.83632,-1.41838 5.673957,-9.75287 10.750297,-18.521066 5.07634,-8.7682 10.03311,-17.31368 11.01505,-18.98996 0.98194,-1.67628 3.61181,-6.212766 5.84415,-10.081091 2.23235,-3.868325 4.57908,-7.560817 5.21496,-8.205538 l 1.15613,-1.17222 19.27053,-0.132447 c 22.71259,-0.156104 25.0496,0.08717 31.31867,3.260191 6.93766,3.51142 12.10962,9.810743 14.3708,17.503325 1.13029,3.84525 1.13681,11.24214 0.0132,15.00441 -2.31254,7.743466 -7.45983,14.004326 -14.38402,17.495866 -2.42075,1.22066 -5.13782,2.18717 -7.00312,2.4911 -1.67627,0.27314 -3.72159,0.6353 -4.54515,0.8048 l -1.49738,0.30819 3.49016,6.07183 c 2.22257,3.86662 3.49015,6.58428 3.49015,7.48282 0,1.33792 -3.10049,7.08603 -11.53087,21.3775 -3.48674,5.91083 -4.35068,6.77756 -6.75576,6.77756 -2.08329,0 -3.25918,-0.89539 -4.841,-3.68621 -2.50755,-4.42412 -7.22644,-12.59387 -10.18134,-17.62688 -8.93035,-15.21082 -13.55375,-23.41173 -13.83861,-24.54669 -0.3942,-1.57064 0.53102,-3.90475 1.84699,-4.6595 0.65587,-0.37616 4.50855,-0.64742 11.39956,-0.80263 l 10.40886,-0.23445 -4.48169,-7.736646 c -12.23819,-21.12649 -14.445,-24.851058 -14.72427,-24.851058 -0.16629,0 -2.16458,3.217748 -4.44064,7.150548 -7.32312,12.65362 -12.17712,21.018176 -17.34622,29.891596 -6.76172,11.60735 -7.34749,12.61739 -12.508927,21.56884 -13.21872,22.92514 -14.10002,24.33686 -15.65268,25.07365 -1.80266,0.85541 -1.89469,0.85617 -3.79169,0.031 z m 82.377457,-20.53301 c 2.14303,-3.67491 3.89758,-6.91861 3.899,-7.20822 0.001,-0.2896 -1.74007,-3.50734 -3.86999,-7.15054 l -3.87258,-6.62398 h -8.16221 c -4.48921,0 -8.1622,0.12508 -8.1622,0.27794 0,0.15286 3.02401,5.4806 6.72002,11.83942 3.69601,6.35882 7.21635,12.45823 7.82298,13.55426 0.60664,1.09602 1.24373,1.99277 1.41576,1.99277 0.17204,0 2.06618,-3.00674 4.20922,-6.68165 z m 11.96955,-31.07896 c 5.82878,-1.49851 10.81054,-5.873326 12.88078,-11.311466 3.76323,-9.88537 -0.9328,-20.691104 -10.708,-24.639474 -2.56271,-1.035123 -3.24353,-1.079765 -18.54451,-1.215983 -14.99931,-0.133532 -15.86649,-0.09546 -15.56759,0.683471 0.2739,0.713759 14.24798,24.927246 19.64339,34.036922 l 1.87453,3.165 h 3.81339 c 2.09737,0 5.07097,-0.32331 6.60801,-0.71847 z"
         id="path207" />
      <path
         style="fill:#00ffff;fill-opacity:0.612598;stroke-width:0.468888"
         d="m 81.096383,159.63051 c -0.81867,-0.35611 -1.79073,-1.1391 -2.16013,-1.73998 -3.190993,-5.1906 -13.593233,-23.59036 -14.005783,-24.7738 -0.42816,-1.22822 -0.37501,-1.81634 0.29031,-3.21218 0.74948,-1.57243 8.06319,-14.35546 11.03777,-19.29199 0.699273,-1.1605 5.665063,-9.70598 11.035093,-18.989937 5.37003,-9.28398 11.48104,-19.833967 13.580027,-23.444403 l 3.81634,-6.564431 5.546,-0.13271 c 4.46204,-0.106772 5.45251,-0.01513 5.06769,0.468888 -0.26307,0.330879 -2.47584,4.083091 -4.91728,8.338248 -3.95076,6.88574 -13.751164,23.788068 -30.288627,52.237415 l -5.425923,9.33418 0.95168,1.68469 c 4.855493,8.59524 7.009193,12.21611 7.271233,12.22461 0.17045,0.006 3.52853,-5.5287 7.46239,-12.29827 3.93386,-6.76957 7.836733,-13.4688 8.67305,-14.88719 0.836322,-1.41838 5.673947,-9.75287 10.750287,-18.52107 5.07634,-8.768187 10.03311,-17.313667 11.01505,-18.989947 0.98194,-1.67628 3.61181,-6.212761 5.84415,-10.081086 2.23235,-3.868325 4.57908,-7.560817 5.21496,-8.205538 l 1.15613,-1.17222 19.27053,-0.132447 c 22.71259,-0.156104 25.0496,0.08717 31.31867,3.260191 6.93766,3.51142 12.10962,9.810743 14.3708,17.50332 1.13029,3.84525 1.13681,11.24214 0.0132,15.00441 -2.31254,7.743457 -7.45983,14.004317 -14.38402,17.495857 -2.42075,1.22066 -5.13782,2.18717 -7.00312,2.4911 -1.67627,0.27314 -3.72159,0.6353 -4.54515,0.8048 l -1.49738,0.30819 3.49016,6.07183 c 2.22257,3.86662 3.49015,6.58428 3.49015,7.48282 0,1.33792 -3.10049,7.08603 -11.53087,21.3775 -3.48674,5.91083 -4.35068,6.77756 -6.75576,6.77756 -2.08329,0 -3.25918,-0.89539 -4.841,-3.68621 -2.50755,-4.42412 -7.22644,-12.59387 -10.18134,-17.62688 -8.93035,-15.21082 -13.55375,-23.41173 -13.83861,-24.54669 -0.3942,-1.57064 0.53102,-3.90475 1.84699,-4.6595 0.65587,-0.37616 4.50855,-0.64742 11.39956,-0.80263 l 10.40886,-0.23445 -4.48169,-7.73664 c -12.23819,-21.126477 -14.445,-24.85105 -14.72427,-24.85105 -0.16629,0 -2.16458,3.217753 -4.44064,7.150553 -7.32312,12.65362 -12.17712,21.018157 -17.34622,29.891577 -6.76172,11.60735 -7.34749,12.61739 -12.50892,21.56884 -13.218717,22.92514 -14.100017,24.33686 -15.652677,25.07365 -1.80266,0.85541 -1.89469,0.85617 -3.79169,0.031 z M 163.47383,139.0975 c 2.14303,-3.67491 3.89758,-6.91861 3.899,-7.20822 0.001,-0.2896 -1.74007,-3.50734 -3.86999,-7.15054 l -3.87258,-6.62398 h -8.16221 c -4.48921,0 -8.1622,0.12508 -8.1622,0.27794 0,0.15286 3.02401,5.4806 6.72002,11.83942 3.69601,6.35882 7.21635,12.45823 7.82298,13.55426 0.60664,1.09602 1.24373,1.99277 1.41576,1.99277 0.17204,0 2.06618,-3.00674 4.20922,-6.68165 z m 11.96955,-31.07896 c 5.82878,-1.49851 10.81054,-5.87332 12.88078,-11.311447 3.76323,-9.88537 -0.9328,-20.691109 -10.708,-24.639479 -2.56271,-1.035123 -3.24353,-1.079765 -18.54451,-1.215983 -14.99931,-0.133532 -15.86649,-0.09546 -15.56759,0.683471 0.2739,0.713759 14.24798,24.927251 19.64339,34.036908 l 1.87453,3.165 h 3.81339 c 2.09737,0 5.07097,-0.32331 6.60801,-0.71847 z"
         id="path207-3" />
    </g>
  </g>
</svg>
