<?xml version="1.0" encoding="UTF-8"?>
<svg width="700pt" height="700pt" version="1.1" viewBox="0 0 700 700" xmlns="http://www.w3.org/2000/svg">
 <path d="m536.71 249.52c-26.145-23.539-146.48-131.84-175-157.52-6.6484-6.0039-16.766-6.0039-23.414 0-29.348 26.426-148.1 133.3-175 157.52-5.3906 4.8477-7.2266 12.512-4.6367 19.285 2.5898 6.7539 9.1016 11.234 16.344 11.234h21.387v174.96c0 9.6602 7.8398 17.5 17.5 17.5h87.5c9.6602 0 17.5-7.8398 17.5-17.5v-105h62.23v105c0 9.6602 7.8398 17.5 17.5 17.5h87.5c9.6602 0 17.5-7.8398 17.5-17.5v-174.98h21.383c7.2461 0 13.738-4.4609 16.344-11.234 2.5898-6.7539 0.75391-14.418-4.6367-19.266z"/>
</svg>
